<?xml version="1.0" encoding="UTF-8"?>
<svg version="1.1" xmlns="http://www.w3.org/2000/svg" width="535" height="540" viewBox="0 0 535 540">
<path d="M0 0 C1.75070517 0.11470137 3.50057536 0.24219028 5.25 0.375 C6.22453125 0.44460937 7.1990625 0.51421875 8.203125 0.5859375 C10.89633189 0.98465249 12.66963279 1.63507063 15 3 C14.5232702 9.83860677 13.42424577 16.48473683 12.10424805 23.20117188 C10.3888423 31.95310897 9.86362153 40.01467595 9.90234375 48.93359375 C9.90446617 50.78320457 9.90446617 50.78320457 9.90663147 52.67018127 C9.91221059 56.59264595 9.92475932 60.51505269 9.9375 64.4375 C9.94308302 67.10351479 9.94708013 69.76952904 9.95117188 72.43554688 C9.96217319 78.95705088 9.97889055 85.4785213 10 92 C10.66 92 11.32 92 12 92 C12.13051758 92.67877197 12.26103516 93.35754395 12.39550781 94.05688477 C14.86670577 106.84024901 17.46187404 119.46615296 21 132 C21.3356476 133.29464073 21.66757003 134.59025197 21.99609375 135.88671875 C25.10384111 148.13446433 25.10384111 148.13446433 30.5 159.5 C31.91689721 161.86149536 32.83492955 164.05837471 33.8125 166.625 C36.06339595 172.3791701 38.96624436 177.62744596 42 183 C42.73860446 184.35849259 43.47547522 185.71792872 44.2109375 187.078125 C44.99445875 188.51059881 45.77831198 189.94289109 46.5625 191.375 C46.92625732 192.05320801 47.29001465 192.73141602 47.66479492 193.43017578 C49.98461934 197.62260449 52.50891451 200.6626101 56 204 C57.42866404 205.85010668 58.82376933 207.72652315 60.1875 209.625 C64.06926145 214.88249387 68.22805898 219.71115041 72.68359375 224.5 C74.57778211 226.54431796 76.39248055 228.61984904 78.1875 230.75 C88.9343808 243.03937428 101.04259691 255.97691029 116 263 C116 263.66 116 264.32 116 265 C117.65 265.33 119.3 265.66 121 266 C121.495 267.485 121.495 267.485 122 269 C124.84979639 270.11680706 124.84979639 270.11680706 128 271 C129.34721283 271.63815344 130.68747118 272.29325371 132 273 C132 273.66 132 274.32 132 275 C134.64 275.66 137.28 276.32 140 277 C140 277.66 140 278.32 140 279 C140.57363281 279.12503906 141.14726562 279.25007813 141.73828125 279.37890625 C144.05826154 280.01599928 146.03541386 280.86751346 148.1875 281.9375 C148.88230469 282.27652344 149.57710937 282.61554688 150.29296875 282.96484375 C152 284 152 284 153 286 C154.84501625 286.76756736 154.84501625 286.76756736 157.0625 287.375 C160.12406385 288.32844477 162.83070528 289.37146669 165.625 290.9375 C170.53946316 293.52302078 175.86081301 294.66131243 181.21875 295.97265625 C185 297 185 297 188.41796875 298.45703125 C195.19678769 301.06937659 202.65331056 301.64728197 209.8125 302.625 C210.59157715 302.7346106 211.3706543 302.84422119 212.17333984 302.95715332 C222.70002215 304.43594287 233.14370471 305.60533641 243.78125 305.859375 C247 306 247 306 250 307 C252.02298338 307.09522881 254.0489963 307.13073093 256.07421875 307.1328125 C257.29173828 307.13490723 258.50925781 307.13700195 259.76367188 307.13916016 C261.05853516 307.1344873 262.35339844 307.12981445 263.6875 307.125 C265.00427734 307.12161621 266.32105469 307.11823242 267.67773438 307.11474609 C290.44953262 307.47807913 290.44953262 307.47807913 312.375 302.375 C316.37403622 300.85812419 318.80309422 300.73769339 323 301 C324.34911472 305.89054085 325.11704968 309.89370776 325 315 C323.85660156 315.27714844 322.71320313 315.55429687 321.53515625 315.83984375 C320.04422535 316.20554378 318.55334239 316.57143929 317.0625 316.9375 C316.30775391 317.11990234 315.55300781 317.30230469 314.77539062 317.49023438 C311.08720179 318.13839179 311.08720179 318.13839179 308 320 C290.99732726 323.01497322 273.62771206 324.40307663 256.375 324.375 C254.41626953 324.37705444 254.41626953 324.37705444 252.41796875 324.37915039 C245.01577544 324.29567764 237.82047408 323.70934169 230.49781799 322.71279907 C225.89466362 322.08783499 221.45163161 321.80966729 216.8125 321.75 C206.46798119 321.40406679 196.78382305 318.15658317 187 315 C187 314.34 187 313.68 187 313 C183.04 312.34 179.08 311.68 175 311 C175 310.34 175 309.68 175 309 C174.10796875 308.92007812 173.2159375 308.84015625 172.296875 308.7578125 C166.4064409 307.90828758 160.85678982 305.80353135 155.25 303.875 C153.57550781 303.32585937 153.57550781 303.32585937 151.8671875 302.765625 C144.13715556 300.1168728 137.73285637 296.59478195 131 292 C130.34 291.67 129.68 291.34 129 291 C129 290.34 129 289.68 129 289 C127.68 288.67 126.36 288.34 125 288 C125 287.34 125 286.68 125 286 C124.113125 285.896875 123.22625 285.79375 122.3125 285.6875 C118.91092251 284.98151222 116.80965935 284.00689954 114 282 C113.67 281.34 113.34 280.68 113 280 C111.40010411 279.09968958 109.76886355 278.25477494 108.125 277.4375 C98.84848044 272.49322308 91.29897996 265.39066119 83.58203125 258.3359375 C82.13164999 257.02379227 80.67312393 255.72010356 79.1875 254.44799805 C74.28100313 250.23996244 69.77451892 245.79517751 65.375 241.0625 C64.7459375 240.39798828 64.116875 239.73347656 63.46875 239.04882812 C59.81398377 235.14004806 56.51121796 231.14680739 53.44384766 226.75952148 C51.83349443 224.79709069 50.02520297 223.51482658 48 222 C47.33333333 220.33333333 46.66666667 218.66666667 46 217 C42.51200116 211.67763149 42.51200116 211.67763149 37.8046875 207.5078125 C37.20914063 207.01023437 36.61359375 206.51265625 36 206 C36 204.68 36 203.36 36 202 C35.34 202 34.68 202 34 202 C33.56300781 200.98292969 33.56300781 200.98292969 33.1171875 199.9453125 C30.50194265 194.00755533 27.616251 188.47394679 24.13671875 182.99609375 C23 181 23 181 23 179 C22.01 178.67 21.02 178.34 20 178 C18.90234375 175.9609375 18.90234375 175.9609375 17.9375 173.375 C17.59460938 172.46363281 17.25171875 171.55226563 16.8984375 170.61328125 C16.21317481 168.62006064 15.61707968 166.59595881 15.0625 164.5625 C13.83861757 160.4588942 12.09645052 156.78267775 10.21875 152.94140625 C9.01044183 150.02520096 8.25781041 147.14085095 7.53613281 144.07299805 C6.83519848 141.36278246 5.87931534 138.78754749 4.89379883 136.16992188 C1.298396 126.60653856 -1.22048851 117.05414075 -3 107 C-3.15098145 106.17822266 -3.30196289 105.35644531 -3.45751953 104.50976562 C-6.14238957 89.15937598 -6.26534167 73.84870336 -6.25 58.3125 C-6.24931519 57.31472534 -6.24863037 56.31695068 -6.2479248 55.28894043 C-6.18097721 25.67741154 -6.18097721 25.67741154 -3 11.8125 C-2.82210938 10.99458984 -2.64421875 10.17667969 -2.4609375 9.33398438 C-1.76053587 6.1534292 -1.03100266 3.09300799 0 0 Z " fill="#252E4D" transform="translate(9,207)"/>
<path d="M0 0 C4.40258998 1.07716874 8.68349448 1.74948557 13.20385742 2.11816406 C16.44725065 2.58633126 19.24333012 4.08032228 22.2199707 5.40917969 C23.56711391 5.7317351 24.92244358 6.02119102 26.2824707 6.28417969 C32.81995661 7.61630438 38.98068934 10.0915221 45.2199707 12.40917969 C46.0449707 12.70179687 46.8699707 12.99441406 47.7199707 13.29589844 C51.51333201 14.65374936 54.79115996 16.31379535 58.2199707 18.40917969 C60.41127605 19.10497423 60.41127605 19.10497423 62.2199707 19.40917969 C62.2199707 20.06917969 62.2199707 20.72917969 62.2199707 21.40917969 C63.0037207 21.65667969 63.7874707 21.90417969 64.5949707 22.15917969 C71.33343151 24.48278686 77.90923858 27.08774173 84.2199707 30.40917969 C84.2199707 31.06917969 84.2199707 31.72917969 84.2199707 32.40917969 C85.1068457 32.67730469 85.9937207 32.94542969 86.9074707 33.22167969 C90.01093731 34.33424319 92.53107755 35.51113747 95.2199707 37.40917969 C95.2199707 38.06917969 95.2199707 38.72917969 95.2199707 39.40917969 C95.9418457 39.65667969 96.6637207 39.90417969 97.4074707 40.15917969 C100.5429963 41.55274662 102.58960142 43.19727824 105.2199707 45.40917969 C106.59191117 46.47562734 107.96727953 47.53767153 109.3449707 48.59667969 C119.02044313 56.12915492 128.32924656 63.96700656 137.2199707 72.40917969 C137.75412598 72.91465332 138.28828125 73.42012695 138.83862305 73.94091797 C147.13452796 81.84729748 154.38633812 90.21703675 161.2199707 99.40917969 C162.29891602 100.84777344 162.29891602 100.84777344 163.3996582 102.31542969 C165.37501412 104.99023069 167.30765008 107.68900116 169.2199707 110.40917969 C169.93411133 111.42109375 170.64825195 112.43300781 171.3840332 113.47558594 C175.21235679 119.03709602 178.05880556 124.03374252 180.2199707 130.40917969 C182.06574877 134.22933511 183.60529701 136.99939722 187.2199707 139.40917969 C188.21269904 141.65936393 189.05160303 143.83934319 189.8449707 146.15917969 C192.69383988 154.14253041 195.87035419 161.96496877 199.14819336 169.78125 C204.2199707 181.99690578 204.2199707 181.99690578 204.2199707 188.40917969 C204.8799707 188.40917969 205.5399707 188.40917969 206.2199707 188.40917969 C206.33590576 188.97427246 206.45184082 189.53936523 206.57128906 190.12158203 C207.09712366 192.6763866 207.62724365 195.23028329 208.1574707 197.78417969 C208.33987305 198.67363281 208.52227539 199.56308594 208.71020508 200.47949219 C208.88745117 201.33027344 209.06469727 202.18105469 209.24731445 203.05761719 C209.49082642 204.23590088 209.49082642 204.23590088 209.73925781 205.43798828 C210.15703792 207.46878715 210.15703792 207.46878715 211.2199707 209.40917969 C214.41323683 225.26726399 214.50432134 241.49520857 214.4699707 257.59667969 C214.46901398 258.51520721 214.46805725 259.43373474 214.46707153 260.38009644 C214.44032788 271.42867428 214.12695353 282.39566612 213.2199707 293.40917969 C207.75210619 293.49330068 202.64874968 293.21334018 197.2199707 292.40917969 C197.22663254 291.73060913 197.23329437 291.05203857 197.24015808 290.35290527 C197.30714711 283.21367184 197.35203178 276.0745294 197.38476562 268.93505859 C197.39802884 266.27960187 197.42012658 263.62464765 197.44628906 260.96923828 C197.7511375 241.58487191 197.7511375 241.58487191 194.91235352 222.48852539 C194.19977516 219.31936079 193.94872576 216.33686836 193.7824707 213.09667969 C193.52195877 209.1474507 192.8514675 206.04353791 191.3684082 202.37792969 C188.59478548 195.04450339 187.14132282 187.48657779 185.59692383 179.81738281 C184.31536598 173.87053535 182.89854461 169.23796948 179.41308594 164.23999023 C177.42482395 161.18904351 176.379827 157.84045592 175.2199707 154.40917969 C173.14005819 148.53128436 170.7428473 143.58988057 167.2199707 138.40917969 C167.2199707 137.74917969 167.2199707 137.08917969 167.2199707 136.40917969 C166.2299707 136.40917969 165.2399707 136.40917969 164.2199707 136.40917969 C162.72176011 133.03820585 162.2199707 131.2047585 162.2199707 127.40917969 C161.2299707 127.07917969 160.2399707 126.74917969 159.2199707 126.40917969 C158.5324707 124.34667969 158.5324707 124.34667969 158.2199707 122.40917969 C157.5599707 122.40917969 156.8999707 122.40917969 156.2199707 122.40917969 C155.82938477 121.39210938 155.43879883 120.37503906 155.03637695 119.32714844 C153.2986783 115.28402842 150.93300751 112.1089318 148.1574707 108.72167969 C147.67431396 108.12154053 147.19115723 107.52140137 146.69335938 106.90307617 C145.69602267 105.66823962 144.69479625 104.43653451 143.68969727 103.20800781 C142.30050169 101.5077432 140.92686456 99.79603381 139.5559082 98.08105469 C135.39916338 92.93013249 131.1810136 88.19955877 126.0715332 83.97558594 C124.22989925 82.41757916 122.5784437 80.77246676 120.9074707 79.03417969 C116.36628073 74.40966513 111.26824274 70.45998018 106.2199707 66.40917969 C103.08988753 63.85452595 100.07802857 61.26723755 97.2199707 58.40917969 C96.5599707 58.07917969 95.8999707 57.74917969 95.2199707 57.40917969 C95.2199707 56.74917969 95.2199707 56.08917969 95.2199707 55.40917969 C94.3330957 55.16167969 93.4462207 54.91417969 92.5324707 54.65917969 C89.01260358 53.33092794 87.12002449 51.78195097 84.2199707 49.40917969 C79.1157955 46.06358585 74.17348074 42.97589286 68.2199707 41.40917969 C68.2199707 40.74917969 68.2199707 40.08917969 68.2199707 39.40917969 C66.96313477 39.01859375 65.70629883 38.62800781 64.41137695 38.22558594 C57.79887375 36.02228072 51.59242305 32.97598973 45.30395508 29.99316406 C39.94107655 27.49645861 34.98026396 25.71833725 29.2199707 24.40917969 C26.26158469 23.46921745 23.33770084 22.43308636 20.4074707 21.40917969 C13.74494463 19.12602396 7.23013861 17.3047518 0.2199707 16.40917969 C0.2199707 15.74917969 0.2199707 15.08917969 0.2199707 14.40917969 C-0.86799805 14.36019531 -1.9559668 14.31121094 -3.0769043 14.26074219 C-4.56129765 14.18558303 -6.04567167 14.11004124 -7.5300293 14.03417969 C-8.24030273 14.00324219 -8.95057617 13.97230469 -9.68237305 13.94042969 C-13.86302893 13.71844796 -17.81687887 13.22029841 -21.9206543 12.38964844 C-30.7651367 10.85245327 -39.71793148 11.07448876 -48.66723633 11.09350586 C-51.74556641 11.09664455 -54.82291262 11.07322008 -57.90112305 11.04785156 C-75.33400536 10.99179531 -91.78184117 13.04082289 -108.5925293 17.63964844 C-111.7800293 18.40917969 -111.7800293 18.40917969 -115.7800293 18.40917969 C-117.3712982 13.53591868 -117.9919515 9.60127373 -117.7800293 4.40917969 C-114.26973789 2.87904247 -111.05689625 1.99873613 -107.2722168 1.44433594 C-106.21413818 1.28545898 -105.15605957 1.12658203 -104.06591797 0.96289062 C-102.94032471 0.80079102 -101.81473145 0.63869141 -100.6550293 0.47167969 C-91.36690065 -0.83324529 -91.36690065 -0.83324529 -82.14331055 -2.51660156 C-56.05975554 -7.80618862 -25.76179076 -6.31568089 0 0 Z " fill="#27304F" transform="translate(316.780029296875,8.5908203125)"/>
<path d="M0 0 C5.97717508 4.38389024 5.97717508 4.38389024 7.34375 7.30078125 C7.4140625 9.31640625 7.4140625 9.31640625 6.19921875 11.23828125 C5.63074219 11.8415625 5.06226563 12.44484375 4.4765625 13.06640625 C3.91066406 13.68 3.34476563 14.29359375 2.76171875 14.92578125 C2.31699219 15.3846875 1.87226563 15.84359375 1.4140625 16.31640625 C-0.9609375 16.06640625 -0.9609375 16.06640625 -3.5859375 15.31640625 C-4.6484375 13.37890625 -4.6484375 13.37890625 -5.5859375 11.31640625 C-11.02488159 7.87174166 -17.33309516 7.7286188 -23.5859375 8.31640625 C-26.60880634 9.7018878 -28.25465175 10.9851205 -30.5859375 13.31640625 C-30.82933301 16.21523708 -30.82933301 16.21523708 -30.7109375 19.44140625 C-30.68386719 21.08496094 -30.68386719 21.08496094 -30.65625 22.76171875 C-30.63304687 23.60476562 -30.60984375 24.4478125 -30.5859375 25.31640625 C-30.0084375 25.58453125 -29.4309375 25.85265625 -28.8359375 26.12890625 C-26.5859375 27.31640625 -26.5859375 27.31640625 -24.7578125 28.7578125 C-21.94971074 30.77297905 -19.03009151 31.93928173 -15.8359375 33.25390625 C-14.58146607 33.78251489 -13.3275555 34.31245662 -12.07421875 34.84375 C-10.92308594 35.32972656 -9.77195313 35.81570312 -8.5859375 36.31640625 C-2.75858751 38.78286602 0.64083917 41.28544181 4.4140625 46.31640625 C5.1565625 47.05890625 5.8990625 47.80140625 6.6640625 48.56640625 C10.53777821 52.44012196 9.59793956 57.02509789 9.6015625 62.19140625 C9.61993164 63.55845703 9.61993164 63.55845703 9.63867188 64.953125 C9.64060547 65.83355469 9.64253906 66.71398437 9.64453125 67.62109375 C9.64864014 68.42530762 9.65274902 69.22952148 9.65698242 70.05810547 C9.38301074 72.60507838 8.82856039 74.18332577 7.4140625 76.31640625 C6.4240625 76.64640625 5.4340625 76.97640625 4.4140625 77.31640625 C4.0221875 78.07953125 3.6303125 78.84265625 3.2265625 79.62890625 C0.35178329 83.89150991 -3.93586485 85.62047413 -8.83203125 86.90625 C-18.73142434 88.38062769 -29.84008269 88.7539699 -38.5859375 83.31640625 C-41.3984375 80.81640625 -41.3984375 80.81640625 -43.5859375 78.31640625 C-45.23458295 76.96085332 -46.89597745 75.62008972 -48.5859375 74.31640625 C-48.28355851 70.78865136 -47.55612899 69.2783176 -45.3359375 66.44140625 C-42.5859375 64.31640625 -42.5859375 64.31640625 -40.16015625 64.46484375 C-37.21046675 65.44061357 -35.83440639 66.63490764 -33.6484375 68.81640625 C-27.16543675 74.69801547 -19.95035107 73.4382181 -11.5859375 73.31640625 C-11.5859375 72.65640625 -11.5859375 71.99640625 -11.5859375 71.31640625 C-10.5959375 70.98640625 -9.6059375 70.65640625 -8.5859375 70.31640625 C-5.68384542 66.76940482 -5.04528521 63.6978788 -5.23828125 59.2421875 C-5.8152594 56.04611755 -7.23237476 54.4841614 -9.5859375 52.31640625 C-11.55209411 51.25140475 -13.55320676 50.24807451 -15.5859375 49.31640625 C-16.92384391 48.32253291 -18.25811872 47.32371705 -19.5859375 46.31640625 C-21.0709375 45.82140625 -21.0709375 45.82140625 -22.5859375 45.31640625 C-22.5859375 44.65640625 -22.5859375 43.99640625 -22.5859375 43.31640625 C-23.9471875 43.16171875 -23.9471875 43.16171875 -25.3359375 43.00390625 C-28.68334608 42.29580059 -29.9803295 41.40089265 -32.5859375 39.31640625 C-33.50439453 39.17332031 -33.50439453 39.17332031 -34.44140625 39.02734375 C-37.57717069 37.98780071 -38.77637723 36.0267188 -40.7734375 33.44140625 C-41.46824219 32.55710938 -42.16304687 31.6728125 -42.87890625 30.76171875 C-45.84176002 26.51744767 -45.74855025 23.00845101 -45.7734375 17.94140625 C-45.78761719 16.63429687 -45.80179688 15.3271875 -45.81640625 13.98046875 C-45.40929144 7.50803325 -43.27574008 4.66305254 -38.5859375 0.31640625 C-38.13992187 -0.19277344 -37.69390625 -0.70195312 -37.234375 -1.2265625 C-27.36058212 -9.95387232 -9.89869122 -6.44461619 0 0 Z " fill="#27304F" transform="translate(429.265625,212.5078125)"/>
<path d="M0 0 C6.6752034 -0.02526945 13.35039457 -0.04283268 20.02563477 -0.05493164 C22.29842591 -0.05997325 24.5712138 -0.06680637 26.84399414 -0.07543945 C30.10303551 -0.08751261 33.36203417 -0.09322987 36.62109375 -0.09765625 C37.64400009 -0.10281754 38.66690643 -0.10797882 39.72080994 -0.11329651 C40.66170975 -0.11337204 41.60260956 -0.11344757 42.57202148 -0.11352539 C43.40475082 -0.115746 44.23748016 -0.11796661 45.09544373 -0.12025452 C47 0 47 0 48 1 C48.09873816 2.99799572 48.12971799 4.99957158 48.125 7 C48.12886719 8.6396875 48.12886719 8.6396875 48.1328125 10.3125 C48 13 48 13 47 14 C44.70848583 14.08790975 42.41427476 14.10694038 40.12109375 14.09765625 C39.09110008 14.09553383 39.09110008 14.09553383 38.04029846 14.09336853 C35.83932199 14.08775479 33.63844591 14.07520007 31.4375 14.0625 C29.94856917 14.05748676 28.45963676 14.05292355 26.97070312 14.04882812 C23.31373195 14.03863021 19.65697883 14.01905779 16 14 C16 22.91 16 31.82 16 41 C27.22 41 38.44 41 50 41 C50 44.96 50 48.92 50 53 C48.39948336 54.60051664 46.71153878 54.12731472 44.49609375 54.12939453 C43.05955444 54.13412277 43.05955444 54.13412277 41.59399414 54.13894653 C40.55235107 54.1369223 39.51070801 54.13489807 38.4375 54.1328125 C37.37587646 54.13376923 36.31425293 54.13472595 35.22045898 54.13571167 C32.97086528 54.13639364 30.72126963 54.13453819 28.47167969 54.13037109 C25.01492929 54.1250231 21.55830883 54.13031554 18.1015625 54.13671875 C15.92187471 54.13605797 13.742187 54.13477682 11.5625 54.1328125 C10.52085693 54.13483673 9.47921387 54.13686096 8.40600586 54.13894653 C7.44831299 54.13579437 6.49062012 54.13264221 5.50390625 54.12939453 C4.65642822 54.12859894 3.8089502 54.12780334 2.93579102 54.12698364 C1 54 1 54 0 53 C-0.09346915 51.34261557 -0.11744977 49.68125356 -0.11352539 48.02124023 C-0.11344986 46.96021591 -0.11337433 45.89919159 -0.11329651 44.80601501 C-0.10813522 43.651866 -0.10297394 42.49771698 -0.09765625 41.30859375 C-0.0962413 40.13361832 -0.09482635 38.95864288 -0.09336853 37.74806213 C-0.08774992 33.97784936 -0.07519426 30.20769496 -0.0625 26.4375 C-0.0574874 23.88867273 -0.05292408 21.33984453 -0.04882812 18.79101562 C-0.03777444 12.52732367 -0.02101821 6.26366601 0 0 Z " fill="#222B4B" transform="translate(257,246)"/>
<path d="M0 0 C15.51 0 31.02 0 47 0 C47 4.29 47 8.58 47 13 C36.44 13 25.88 13 15 13 C15.33 21.58 15.66 30.16 16 39 C18.37058594 39.06058594 20.74117187 39.12117188 23.18359375 39.18359375 C25.47049291 39.24533898 27.75734037 39.30874492 30.04418945 39.37231445 C31.637893 39.41572146 33.2316448 39.45739219 34.82543945 39.49731445 C37.11163908 39.55487807 39.39759449 39.61861149 41.68359375 39.68359375 C42.40026718 39.70030624 43.11694061 39.71701874 43.85533142 39.73423767 C48.88612829 39.88612829 48.88612829 39.88612829 50 41 C50 44.96 50 48.92 50 53 C33.5 53 17 53 0 53 C0 35.51 0 18.02 0 0 Z " fill="#283150" transform="translate(93,247)"/>
<path d="M0 0 C1.93166016 0.01740234 1.93166016 0.01740234 3.90234375 0.03515625 C5.19269531 0.04417969 6.48304688 0.05320313 7.8125 0.0625 C8.81152344 0.07410156 9.81054688 0.08570313 10.83984375 0.09765625 C10.8629659 11.81492413 10.88075818 23.53218662 10.89165592 35.24947262 C10.89688503 40.68967937 10.90398318 46.12987056 10.9152832 51.57006836 C10.9261111 56.81551327 10.93212037 62.06094317 10.93472099 67.30639839 C10.93657542 69.31236571 10.94019637 71.31833217 10.94557381 73.32429314 C10.95278294 76.12368449 10.95383475 78.92301304 10.95336914 81.72241211 C10.95696442 82.5603833 10.96055969 83.39835449 10.96426392 84.26171875 C10.95389591 89.98360409 10.95389591 89.98360409 9.83984375 91.09765625 C7.67503578 91.19658565 5.5069059 91.22736725 3.33984375 91.22265625 C2.15390625 91.22523438 0.96796875 91.2278125 -0.25390625 91.23046875 C-3.16015625 91.09765625 -3.16015625 91.09765625 -4.16015625 90.09765625 C-4.26065839 87.33364217 -4.296317 84.59458399 -4.28955078 81.83007812 C-4.2913031 80.96347061 -4.29305542 80.0968631 -4.29486084 79.20399475 C-4.2992805 76.32477852 -4.29634097 73.44562316 -4.29296875 70.56640625 C-4.29364176 68.57482898 -4.29461175 66.58325179 -4.29586792 64.5916748 C-4.29734505 60.4118573 -4.29518986 56.23206112 -4.29052734 52.05224609 C-4.28483005 46.68163099 -4.28810898 41.31106585 -4.29409981 35.94045258 C-4.29770502 31.82622905 -4.29656702 27.71201746 -4.29397202 23.59779358 C-4.29330264 21.61694839 -4.29413155 19.63610213 -4.29645157 17.65525818 C-4.29897744 14.89188749 -4.29513843 12.12859891 -4.28955078 9.36523438 C-4.29157501 8.53818497 -4.29359924 7.71113556 -4.29568481 6.85902405 C-4.27035175 0.1319639 -4.27035175 0.1319639 0 0 Z " fill="#293251" transform="translate(342.16015625,208.90234375)"/>
<path d="M0 0 C6.6752034 -0.02526945 13.35039457 -0.04283268 20.02563477 -0.05493164 C22.29842591 -0.05997325 24.5712138 -0.06680637 26.84399414 -0.07543945 C30.10303551 -0.08751261 33.36203417 -0.09322987 36.62109375 -0.09765625 C37.64400009 -0.10281754 38.66690643 -0.10797882 39.72080994 -0.11329651 C40.66170975 -0.11337204 41.60260956 -0.11344757 42.57202148 -0.11352539 C43.40475082 -0.115746 44.23748016 -0.11796661 45.09544373 -0.12025452 C47 0 47 0 48 1 C48.07244053 3.01964199 48.08377188 5.04167124 48.0625 7.0625 C48.05347656 8.16722656 48.04445313 9.27195313 48.03515625 10.41015625 C48.02355469 11.26480469 48.01195312 12.11945313 48 13 C47.67 13 47.34 13 47 13 C47 9.37 47 5.74 47 2 C32.15 2 17.3 2 2 2 C2 18.83 2 35.66 2 53 C17.51 53 33.02 53 49 53 C49 53.33 49 53.66 49 54 C42.18238106 54.0252689 35.36477411 54.04283244 28.54711914 54.05493164 C26.22582549 54.05997333 23.90453503 54.06680651 21.58325195 54.07543945 C18.25471205 54.08751225 14.92621398 54.09322979 11.59765625 54.09765625 C10.03048607 54.10539818 10.03048607 54.10539818 8.43165588 54.11329651 C7.47073532 54.11337204 6.50981476 54.11344757 5.51977539 54.11352539 C4.66928116 54.115746 3.81878693 54.11796661 2.94252014 54.12025452 C1 54 1 54 0 53 C-0.09346915 51.34261557 -0.11744977 49.68125356 -0.11352539 48.02124023 C-0.11344986 46.96021591 -0.11337433 45.89919159 -0.11329651 44.80601501 C-0.10813522 43.651866 -0.10297394 42.49771698 -0.09765625 41.30859375 C-0.0962413 40.13361832 -0.09482635 38.95864288 -0.09336853 37.74806213 C-0.08774992 33.97784936 -0.07519426 30.20769496 -0.0625 26.4375 C-0.0574874 23.88867273 -0.05292408 21.33984453 -0.04882812 18.79101562 C-0.03777444 12.52732367 -0.02101821 6.26366601 0 0 Z " fill="#262F4F" transform="translate(218.5859375,213.68359375)"/>
<path d="M0 0 C0.85049423 0.00222061 1.70098846 0.00444122 2.57725525 0.00672913 C4.01863609 0.00684242 4.01863609 0.00684242 5.48913574 0.00695801 C7.05630592 0.01469994 7.05630592 0.01469994 8.65513611 0.02259827 C9.71913132 0.02401321 10.78312653 0.02542816 11.87936401 0.02688599 C15.29293069 0.03250388 18.70643286 0.04505941 22.11997986 0.05775452 C24.42792162 0.06276721 26.73586441 0.06733052 29.04380798 0.07142639 C34.71505412 0.08247912 40.38626238 0.09923465 46.05747986 0.12025452 C46.08434539 2.09934849 46.10381361 4.07854423 46.11997986 6.05775452 C46.13158142 7.15990295 46.14318298 8.26205139 46.15513611 9.39759827 C46.05747986 12.12025452 46.05747986 12.12025452 45.05747986 13.12025452 C43.58942694 13.21848196 42.11670526 13.24823822 40.64537048 13.24964905 C39.70769836 13.25280121 38.77002625 13.25595337 37.80393982 13.25920105 C36.78417053 13.25717682 35.76440125 13.25515259 34.71372986 13.25306702 C33.15458862 13.25450211 33.15458862 13.25450211 31.56394958 13.25596619 C29.36143432 13.25664814 27.15891707 13.25479278 24.95640564 13.25062561 C21.57208267 13.24527759 18.18789242 13.2505701 14.80357361 13.25697327 C12.66945873 13.25631249 10.53534393 13.25503133 8.40122986 13.25306702 C7.38146057 13.25509125 6.36169128 13.25711548 5.3110199 13.25920105 C3.90451172 13.25447281 3.90451172 13.25447281 2.46958923 13.24964905 C1.6398761 13.24885345 0.81016296 13.24805786 -0.04469299 13.24723816 C-1.94252014 13.12025452 -1.94252014 13.12025452 -2.94252014 12.12025452 C-3.04103185 10.28909569 -3.07224643 8.45405518 -3.06752014 6.62025452 C-3.07009827 5.61994202 -3.07267639 4.61962952 -3.07533264 3.58900452 C-2.89188445 0.17902629 -2.89188445 0.17902629 0 0 Z " fill="#2B3453" transform="translate(98.50390625,208.87060546875)"/>
<path d="M0 0 C0.85049423 0.00222061 1.70098846 0.00444122 2.57725525 0.00672913 C4.01863609 0.00684242 4.01863609 0.00684242 5.48913574 0.00695801 C7.05630592 0.01469994 7.05630592 0.01469994 8.65513611 0.02259827 C9.71913132 0.02401321 10.78312653 0.02542816 11.87936401 0.02688599 C15.29293069 0.03250388 18.70643286 0.04505941 22.11997986 0.05775452 C24.42792162 0.06276721 26.73586441 0.06733052 29.04380798 0.07142639 C34.71505412 0.08247912 40.38626238 0.09923465 46.05747986 0.12025452 C46.05747986 0.45025452 46.05747986 0.78025452 46.05747986 1.12025452 C30.54747986 1.45025452 15.03747986 1.78025452 -0.94252014 2.12025452 C-0.94252014 5.75025452 -0.94252014 9.38025452 -0.94252014 13.12025452 C22.32247986 13.61525452 22.32247986 13.61525452 46.05747986 14.12025452 C46.05747986 14.78025452 46.05747986 15.44025452 46.05747986 16.12025452 C39.23986092 16.14552342 32.42225396 16.16308696 25.604599 16.17518616 C23.28330535 16.18022785 20.96201489 16.18706103 18.64073181 16.19569397 C15.31219191 16.20776676 11.98369384 16.2134843 8.65513611 16.21791077 C7.08796593 16.22565269 7.08796593 16.22565269 5.48913574 16.23355103 C4.52821518 16.23362656 3.56729462 16.23370209 2.57725525 16.23377991 C1.72676102 16.23600052 0.87626678 16.23822113 0 16.24050903 C-1.94252014 16.12025452 -1.94252014 16.12025452 -2.94252014 15.12025452 C-3.04161317 12.78865397 -3.07222518 10.4539551 -3.06752014 8.12025452 C-3.07009827 6.84150452 -3.07267639 5.56275452 -3.07533264 4.24525452 C-2.90254599 0.1796863 -2.90254599 0.1796863 0 0 Z " fill="#1B2545" transform="translate(260.94252014160156,208.87974548339844)"/>
</svg>
